<?xml version="1.0" encoding="UTF-8" standalone="no"?><!DOCTYPE svg PUBLIC "-//W3C//DTD SVG 1.1//EN" "http://www.w3.org/Graphics/SVG/1.1/DTD/svg11.dtd"><svg width="100%" height="100%" viewBox="0 0 36 23" version="1.1" xmlns="http://www.w3.org/2000/svg" xmlns:xlink="http://www.w3.org/1999/xlink" xml:space="preserve" style="fill-rule:evenodd;clip-rule:evenodd;stroke-linejoin:round;stroke-miterlimit:1.41421;"><path d="M32.25,11.25l-3.75,0l0,-6l-3.75,0l0,6l-3.75,0l5.625,6l5.625,-6Zm-23.25,6l0,-6.75l3.375,4.5l3.375,-4.5l0,6.75l3.75,0l0,-12l-3.75,0l-3.375,4.946l-3.375,-4.946l-3.75,0l0,12l3.75,0Zm24.75,5.25l-31.5,0c-1.432,0 -2.25,-0.819 -2.25,-2.25l0,-18c0,-1.431 0.818,-2.25 2.25,-2.25l31.5,0c1.432,0 2.25,0.819 2.25,2.25l0,18c0,1.431 -0.818,2.25 -2.25,2.25" style="fill-rule:nonzero;"/></svg>